# Blender v2.92.0 OBJ File: 'wheel.blend'
# www.blender.org
mtllib spinning_wheel_strip.mtl
o Cylinder_Cylinder.001
v 0.278719 1.500912 0.476222
v 0.278719 1.500912 0.513856
v 0.363770 1.492536 0.476222
v 0.363770 1.492536 0.513856
v 0.445552 1.467727 0.476222
v 0.445552 1.467727 0.513856
v 0.520923 1.427441 0.476222
v 0.520923 1.427441 0.513856
v 0.586986 1.373224 0.476222
v 0.586986 1.373224 0.513856
v 0.641202 1.307161 0.476222
v 0.641202 1.307161 0.513856
v 0.681489 1.231790 0.476222
v 0.681489 1.231790 0.513856
v 0.719776 1.150008 0.476222
v 0.719776 1.150008 0.513856
v 0.784603 1.064958 0.476222
v 0.784603 1.064958 0.513856
v 0.840073 0.979907 0.476222
v 0.840073 0.979907 0.513856
v 0.866099 0.898125 0.476222
v 0.866099 0.898125 0.513856
v 0.795421 0.822754 0.476222
v 0.795421 0.822754 0.513856
v 0.653982 0.756691 0.476222
v 0.653982 0.756691 0.513856
v 0.520923 0.702475 0.476222
v 0.520923 0.702475 0.513856
v 0.445552 0.662188 0.476222
v 0.445552 0.662188 0.513856
v 0.363770 0.637380 0.476222
v 0.363770 0.637380 0.513856
v 0.278719 0.629003 0.476222
v 0.278719 0.629003 0.513856
v 0.193669 0.637380 0.476222
v 0.193669 0.637380 0.513856
v 0.111887 0.662188 0.476222
v 0.111887 0.662188 0.513856
v 0.036516 0.702475 0.476222
v 0.036516 0.702475 0.513856
v -0.029547 0.756691 0.476222
v -0.029547 0.756691 0.513856
v -0.083764 0.822755 0.476222
v -0.083764 0.822755 0.513856
v -0.124050 0.898125 0.476222
v -0.124050 0.898125 0.513856
v -0.148859 0.979908 0.476222
v -0.148859 0.979908 0.513856
v -0.157235 1.064958 0.476222
v -0.157235 1.064958 0.513856
v -0.148858 1.150009 0.476222
v -0.148858 1.150009 0.513856
v -0.124050 1.231791 0.476222
v -0.124050 1.231791 0.513856
v -0.083763 1.307162 0.476222
v -0.083763 1.307162 0.513856
v -0.029547 1.373225 0.476222
v -0.029547 1.373225 0.513856
v 0.036516 1.427441 0.476222
v 0.036516 1.427441 0.513856
v 0.111887 1.467728 0.476222
v 0.111887 1.467728 0.513856
v 0.193670 1.492536 0.476222
v 0.193670 1.492536 0.513856
vt 1.000000 0.500000
vt 1.000000 1.000000
vt 0.968750 1.000000
vt 0.968750 0.500000
vt 0.937500 1.000000
vt 0.937500 0.500000
vt 0.906250 1.000000
vt 0.906250 0.500000
vt 0.875000 1.000000
vt 0.875000 0.500000
vt 0.843750 1.000000
vt 0.843750 0.500000
vt 0.812500 1.000000
vt 0.812500 0.500000
vt 0.781250 1.000000
vt 0.781250 0.500000
vt 0.750000 1.000000
vt 0.750000 0.500000
vt 0.718750 1.000000
vt 0.718750 0.500000
vt 0.687500 1.000000
vt 0.687500 0.500000
vt 0.656250 1.000000
vt 0.656250 0.500000
vt 0.625000 1.000000
vt 0.625000 0.500000
vt 0.593750 1.000000
vt 0.593750 0.500000
vt 0.562500 1.000000
vt 0.562500 0.500000
vt 0.531250 1.000000
vt 0.531250 0.500000
vt 0.500000 1.000000
vt 0.500000 0.500000
vt 0.468750 1.000000
vt 0.468750 0.500000
vt 0.437500 1.000000
vt 0.437500 0.500000
vt 0.406250 1.000000
vt 0.406250 0.500000
vt 0.375000 1.000000
vt 0.375000 0.500000
vt 0.343750 1.000000
vt 0.343750 0.500000
vt 0.312500 1.000000
vt 0.312500 0.500000
vt 0.281250 1.000000
vt 0.281250 0.500000
vt 0.250000 1.000000
vt 0.250000 0.500000
vt 0.218750 1.000000
vt 0.218750 0.500000
vt 0.187500 1.000000
vt 0.187500 0.500000
vt 0.156250 1.000000
vt 0.156250 0.500000
vt 0.125000 1.000000
vt 0.125000 0.500000
vt 0.093750 1.000000
vt 0.093750 0.500000
vt 0.062500 1.000000
vt 0.062500 0.500000
vt 0.031250 1.000000
vt 0.031250 0.500000
vt 0.000000 1.000000
vt 0.000000 0.500000
vn 0.0000 1.0000 0.0000
vn 0.1951 0.9808 0.0000
vn 0.3827 0.9239 0.0000
vn 0.5556 0.8314 0.0000
vn 0.7071 0.7071 0.0000
vn 0.8314 0.5556 0.0000
vn 0.8941 0.4478 0.0000
vn 0.8553 0.5180 0.0000
vn 0.8170 0.5766 0.0000
vn 0.9034 0.4287 0.0000
vn 0.9753 -0.2207 0.0000
vn 0.5869 -0.8096 0.0000
vn 0.4004 -0.9163 0.0000
vn 0.4249 -0.9052 0.0000
vn 0.3827 -0.9239 0.0000
vn 0.1951 -0.9808 0.0000
vn 0.0000 -1.0000 0.0000
vn -0.1951 -0.9808 0.0000
vn -0.3827 -0.9239 0.0000
vn -0.5556 -0.8314 0.0000
vn -0.7071 -0.7071 0.0000
vn -0.8314 -0.5556 0.0000
vn -0.9239 -0.3827 0.0000
vn -0.9808 -0.1951 0.0000
vn -1.0000 0.0000 0.0000
vn -0.9808 0.1951 0.0000
vn -0.9239 0.3827 0.0000
vn -0.8314 0.5556 0.0000
vn -0.7071 0.7071 0.0000
vn -0.5556 0.8314 0.0000
vn -0.3827 0.9239 0.0000
vn -0.1951 0.9808 0.0000
usemtl None
s 1
f 1/1/1 2/2/1 4/3/2 3/4/2
f 3/4/2 4/3/2 6/5/3 5/6/3
f 5/6/3 6/5/3 8/7/4 7/8/4
f 7/8/4 8/7/4 10/9/5 9/10/5
f 9/10/5 10/9/5 12/11/6 11/12/6
f 11/12/6 12/11/6 14/13/7 13/14/7
f 13/14/7 14/13/7 16/15/8 15/16/8
f 15/16/8 16/15/8 18/17/9 17/18/9
f 17/18/9 18/17/9 20/19/10 19/20/10
f 19/20/10 20/19/10 22/21/11 21/22/11
f 21/22/11 22/21/11 24/23/12 23/24/12
f 23/24/12 24/23/12 26/25/13 25/26/13
f 25/26/13 26/25/13 28/27/14 27/28/14
f 27/28/14 28/27/14 30/29/15 29/30/15
f 29/30/15 30/29/15 32/31/16 31/32/16
f 31/32/16 32/31/16 34/33/17 33/34/17
f 33/34/17 34/33/17 36/35/18 35/36/18
f 35/36/18 36/35/18 38/37/19 37/38/19
f 37/38/19 38/37/19 40/39/20 39/40/20
f 39/40/20 40/39/20 42/41/21 41/42/21
f 41/42/21 42/41/21 44/43/22 43/44/22
f 43/44/22 44/43/22 46/45/23 45/46/23
f 45/46/23 46/45/23 48/47/24 47/48/24
f 47/48/24 48/47/24 50/49/25 49/50/25
f 49/50/25 50/49/25 52/51/26 51/52/26
f 51/52/26 52/51/26 54/53/27 53/54/27
f 53/54/27 54/53/27 56/55/28 55/56/28
f 55/56/28 56/55/28 58/57/29 57/58/29
f 57/58/29 58/57/29 60/59/30 59/60/30
f 59/60/30 60/59/30 62/61/31 61/62/31
f 61/62/31 62/61/31 64/63/32 63/64/32
f 63/64/32 64/63/32 2/65/1 1/66/1
